# xmcd CD database file
#
# Track frame offsets:
#	150
#	18662
#	45163
#	57361
#	79604
#	86408
#	98211
#	112124
#	131017
#	157110
#	176269
#	191978
#	206333
#	227416
#	243400
#	264510
#	280560
#	296964
#
# Disc length: 4026 seconds
#
# Revision: 0
# Processed by: cddbd v1.5.2PL0 Copyright (c) Steve Scherf et al.
# Submitted via: CDex 1.51
#
DISCID=f60fb812
DTITLE=Sampler - Lars-Luis Linek - White Boys Blues CD 3
DYEAR=2002
DGENRE=Blues
TTITLE0=John Mayall - John Lee Boogie
TTITLE1=Mike Bloomfield - Knockin' Myself Out
TTITLE2=Canned Heat - Got My Mojo Workin'
TTITLE3=Johnny Winter - Look Up
TTITLE4=Pete Seeger - Empty Pocket Blues
TTITLE5=John Mayall - Lost And Gone
TTITLE6=Canned Heat - Louise
TTITLE7=Edgar Winter - Eye Of The Storm
TTITLE8=Chicago - Purples
TTITLE9=Pepe Ahlqvist - Cicada Of Chicago
TTITLE10=Johnny Winter - Self Destruction Blues
TTITLE11=John Mayall - Why Worry?
TTITLE12=Mike Bloomfield - Women Lovin' Each Other
TTITLE13=Tony Joe White - Polk Salad Annie
TTITLE14=Electtic Flag - I Was Robbed Last Night
TTITLE15=Skeleton Krew - Song For Frank
TTITLE16=Peter Frampton - There`s A Man
TTITLE17=Pete Seeger - Winnisboro Cotton Mill Blues
EXTD=YEAR: 2002
EXTT0=
EXTT1=
EXTT2=
EXTT3=
EXTT4=
EXTT5=
EXTT6=
EXTT7=
EXTT8=
EXTT9=
EXTT10=
EXTT11=
EXTT12=
EXTT13=
EXTT14=
EXTT15=
EXTT16=
EXTT17=
PLAYORDER=
